<?xml version="1.0" encoding="UTF-8"?>
<svg width="462px" height="462px" viewBox="0 0 462 462" version="1.1" xmlns="http://www.w3.org/2000/svg" xmlns:xlink="http://www.w3.org/1999/xlink">
    <!-- Generator: Sketch 52.2 (67145) - http://www.bohemiancoding.com/sketch -->
    <title>Safari Icon</title>
    <desc>Created with Sketch.</desc>
    <defs>
        <linearGradient x1="50%" y1="0%" x2="50%" y2="95.8930188%" id="linearGradient-1">
            <stop stop-color="#FFFFFF" offset="0%"></stop>
            <stop stop-color="#CCCCCC" offset="100%"></stop>
        </linearGradient>
        <path d="M450,225 C450,349.264069 349.264069,450 225,450 C100.735931,450 0,349.264069 0,225 C0,100.735931 100.735931,0 225,0 C349.264069,0 450,100.735931 450,225 Z M19,225 C19,338.770658 111.229342,431 225,431 C338.770658,431 431,338.770658 431,225 C431,111.229342 338.770658,19 225,19 C111.229342,19 19,111.229342 19,225 Z" id="path-2"></path>
        <filter x="-2.4%" y="-1.8%" width="104.4%" height="104.4%" filterUnits="objectBoundingBox" id="filter-3">
            <feMorphology radius="0.5" operator="dilate" in="SourceAlpha" result="shadowSpreadOuter1"></feMorphology>
            <feOffset dx="-1" dy="2" in="shadowSpreadOuter1" result="shadowOffsetOuter1"></feOffset>
            <feGaussianBlur stdDeviation="2.5" in="shadowOffsetOuter1" result="shadowBlurOuter1"></feGaussianBlur>
            <feColorMatrix values="0 0 0 0 0   0 0 0 0 0   0 0 0 0 0  0 0 0 0.5 0" type="matrix" in="shadowBlurOuter1"></feColorMatrix>
        </filter>
        <radialGradient cx="50%" cy="52.8590598%" fx="50%" fy="52.8590598%" r="45.880671%" gradientTransform="translate(0.500000,0.528591),scale(0.997596,1.000000),rotate(90.000000),translate(-0.500000,-0.528591)" id="radialGradient-4">
            <stop stop-color="#1CA9C8" offset="0%"></stop>
            <stop stop-color="#1266BC" offset="100%"></stop>
        </radialGradient>
        <radialGradient cx="50%" cy="50%" fx="50%" fy="50%" r="52.6693437%" gradientTransform="translate(0.500000,0.500000),scale(0.997596,1.000000),rotate(90.462640),translate(-0.500000,-0.500000)" id="radialGradient-5">
            <stop stop-color="#019CB8" offset="0%"></stop>
            <stop stop-color="#00A8CB" offset="22.1916951%"></stop>
            <stop stop-color="#009AC7" offset="44.6645593%"></stop>
            <stop stop-color="#0A69DB" offset="100%"></stop>
        </radialGradient>
        <ellipse id="path-6" cx="225" cy="224.5" rx="208" ry="207.5"></ellipse>
        <linearGradient x1="50%" y1="-13.9171931%" x2="50%" y2="95.8930188%" id="linearGradient-7">
            <stop stop-color="#FFFFFF" offset="0%"></stop>
            <stop stop-color="#CCCCCC" offset="100%"></stop>
        </linearGradient>
        <linearGradient x1="55.5446802%" y1="-10.3539311%" x2="50%" y2="95.8930188%" id="linearGradient-8">
            <stop stop-color="#FFFFFF" offset="0%"></stop>
            <stop stop-color="#CCCCCC" offset="100%"></stop>
        </linearGradient>
        <path d="M193.595228,204.852397 C193.595228,204.852397 185.137483,400.286466 184.975479,400.285258 C174.032814,400.203715 150.596119,400.037028 150.596119,400.037028 L193.595228,204.852397 Z" id="path-9"></path>
        <filter x="-32.0%" y="-16.8%" width="152.3%" height="121.6%" filterUnits="objectBoundingBox" id="filter-10">
            <feMorphology radius="1" operator="dilate" in="SourceAlpha" result="shadowSpreadOuter1"></feMorphology>
            <feOffset dx="-3" dy="-1" in="shadowSpreadOuter1" result="shadowOffsetOuter1"></feOffset>
            <feGaussianBlur stdDeviation="2" in="shadowOffsetOuter1" result="shadowBlurOuter1"></feGaussianBlur>
            <feColorMatrix values="0 0 0 0 0   0 0 0 0 0   0 0 0 0 0  0 0 0 0.5 0" type="matrix" in="shadowBlurOuter1"></feColorMatrix>
        </filter>
        <path d="M279.626053,253.517769 C294.556331,189.602242 324.416887,61.7711867 324.416887,61.7711867 L313.576191,255.461388 L279.172035,255.461388 C279.172035,255.461388 279.474714,254.165642 279.626053,253.517769 Z" id="path-11"></path>
        <filter x="-35.2%" y="-20.3%" width="166.8%" height="125.7%" filterUnits="objectBoundingBox" id="filter-12">
            <feMorphology radius="1" operator="dilate" in="SourceAlpha" result="shadowSpreadOuter1"></feMorphology>
            <feOffset dx="-1" dy="-4" in="shadowSpreadOuter1" result="shadowOffsetOuter1"></feOffset>
            <feGaussianBlur stdDeviation="3" in="shadowOffsetOuter1" result="shadowBlurOuter1"></feGaussianBlur>
            <feColorMatrix values="0 0 0 0 0   0 0 0 0 0   0 0 0 0 0  0 0 0 0.5 0" type="matrix" in="shadowBlurOuter1"></feColorMatrix>
        </filter>
    </defs>
    <g id="Page-1" stroke="none" stroke-width="1" fill="none" fill-rule="evenodd">
        <g id="Safari-Icon" transform="translate(7.000000, 4.000000)">
            <g id="Oval-1" fill-rule="nonzero">
                <use fill="black" fill-opacity="1" filter="url(#filter-3)" xlink:href="#path-2"></use>
                <use fill="url(#linearGradient-1)" xlink:href="#path-2"></use>
            </g>
            <g id="Oval-1">
                <use fill="url(#radialGradient-4)" xlink:href="#path-6"></use>
                <use fill="" xlink:href="#path-6"></use>
                <use stroke="#979797" stroke-width="1" fill="url(#radialGradient-5)" xlink:href="#path-6"></use>
            </g>
            <path d="M225,26 C226.653483,26 228,27.3447939 228,29.0036812 L228,64.9963188 C228,66.6501537 226.656854,68 225,68 C223.346517,68 222,66.6552061 222,64.9963188 L222,29.0036812 C222,27.3498463 223.343146,26 225,26 Z M264.355511,30.3522679 C265.972861,30.6960463 267.010356,32.2914099 266.665454,33.9140465 L259.182163,69.1201586 C258.838312,70.7378533 257.243868,71.7789465 255.62322,71.4344671 C254.00587,71.0906887 252.968376,69.4953251 253.313278,67.8726884 L260.796568,32.6665764 C261.14042,31.0488817 262.734863,30.0077885 264.355511,30.3522679 Z M301.300501,40.8277895 C302.833583,41.4471951 303.578284,43.1984805 302.956854,44.7365741 L289.473774,78.1083665 C288.854237,79.6417755 287.103232,80.3901799 285.567024,79.7695114 C284.033941,79.1501058 283.289241,77.3988205 283.910671,75.8607269 L297.39375,42.4889345 C298.013288,40.9555254 299.764292,40.207121 301.300501,40.8277895 Z M335.466746,59.617002 C336.837545,60.5416179 337.201859,62.4094654 336.274221,63.7847453 L316.147394,93.6239942 C315.222581,94.9950855 313.354238,95.3630812 311.980644,94.4365801 C310.609844,93.5119642 310.24553,91.6441167 311.173168,90.2688368 L331.299996,60.4295879 C332.224808,59.0584966 334.093151,58.6905009 335.466746,59.617002 Z M365.762008,84.6279064 C366.889681,85.8371872 366.824483,87.7391147 365.61125,88.8704731 L339.287901,113.417393 C338.078363,114.545306 336.175124,114.483584 335.045152,113.271837 C333.91748,112.062557 333.982677,110.160629 335.195911,109.029271 L361.519259,84.4823509 C362.728798,83.3544382 364.632036,83.4161599 365.762008,84.6279064 Z M390.908876,114.645876 C391.809427,116.032603 391.414954,117.894315 390.023694,118.797809 L359.837728,138.400805 C358.450705,139.301548 356.587099,138.91027 355.684712,137.520715 C354.784161,136.133988 355.178634,134.272276 356.569894,133.368781 L386.75586,113.765786 C388.142882,112.865043 390.006488,113.256321 390.908876,114.645876 Z M409.214152,148.563137 C409.833558,150.09622 409.091101,151.848457 407.553007,152.469888 L374.181215,165.952967 C372.647806,166.572504 370.893099,165.832823 370.27243,164.296614 C369.653025,162.763532 370.395482,161.011294 371.933575,160.389864 L405.305368,146.906784 C406.838777,146.287247 408.593484,147.026929 409.214152,148.563137 Z M420.804747,186.536122 C421.120246,188.159226 420.057087,189.737602 418.428678,190.054133 L383.097327,196.921852 C381.473878,197.237419 379.892548,196.176513 379.576405,194.5501 C379.260906,192.926996 380.324064,191.34862 381.952473,191.032089 L417.283825,184.16437 C418.907274,183.848803 420.488604,184.909709 420.804747,186.536122 Z M424.190576,224.790071 C424.190576,226.443554 422.845782,227.790071 421.186895,227.790071 L385.194257,227.790071 C383.540422,227.790071 382.190576,226.446925 382.190576,224.790071 C382.190576,223.136588 383.53537,221.790071 385.194257,221.790071 L421.186895,221.790071 C422.84073,221.790071 424.190576,223.133217 424.190576,224.790071 Z M420.060668,263.739232 C419.745169,265.362335 418.168155,266.427514 416.539746,266.110984 L381.208395,259.243265 C379.584945,258.927698 378.516184,257.351667 378.832327,255.725254 C379.147826,254.10215 380.72484,253.036971 382.353249,253.353502 L417.6846,260.221221 C419.308049,260.536787 420.376811,262.112818 420.060668,263.739232 Z M408.627396,301.378892 C407.981329,302.900931 406.217313,303.614953 404.690299,302.966774 L371.558902,288.903331 C370.036539,288.257126 369.318808,286.493327 369.966192,284.968184 C370.612259,283.446145 372.376275,282.732123 373.903289,283.380301 L407.034686,297.443745 C408.557049,298.08995 409.27478,299.853749 408.627396,301.378892 Z M389.605773,335.428415 C388.657374,336.782869 386.783453,337.114529 385.424572,336.163031 L355.94113,315.518502 C354.586387,314.569901 354.251055,312.69542 355.201387,311.338205 C356.149786,309.983751 358.023707,309.652091 359.382588,310.60359 L388.866031,331.248118 C390.220773,332.196719 390.556106,334.0712 389.605773,335.428415 Z M366.509716,366.012575 C365.36111,367.201991 363.458377,367.236422 362.265073,366.084062 L336.374137,341.081475 C335.184467,339.932624 335.146497,338.028764 336.297444,336.836923 C337.44605,335.647507 339.348783,335.613076 340.542087,336.765436 L366.433024,361.768023 C367.622693,362.916873 367.660664,364.820733 366.509716,366.012575 Z M335.466746,389.71618 C334.095946,390.640796 332.227634,390.278874 331.299996,388.903594 L311.173168,359.064345 C310.248356,357.693254 310.607049,355.823103 311.980644,354.896602 C313.351443,353.971986 315.219756,354.333908 316.147394,355.709188 L336.274221,385.548437 C337.199034,386.919528 336.84034,388.789679 335.466746,389.71618 Z M301.008351,408.114326 C299.497819,408.786858 297.720737,408.106005 297.046007,406.590536 L282.406483,373.709626 C281.733807,372.198772 282.4118,370.41932 283.925412,369.745416 C285.435944,369.072884 287.213025,369.753737 287.887755,371.269206 L302.52728,404.150116 C303.199955,405.66097 302.521962,407.440422 301.008351,408.114326 Z M264.409063,419.980914 C262.791712,420.324693 261.195022,419.289242 260.85012,417.666606 L253.366829,382.460494 C253.022978,380.842799 254.056124,379.243194 255.676772,378.898715 C257.294122,378.554937 258.890813,379.590387 259.235715,381.213023 L266.719005,416.419135 C267.062857,418.03683 266.029711,419.636435 264.409063,419.980914 Z M225,424.333182 C223.346517,424.333182 222,422.988388 222,421.329501 L222,385.336863 C222,383.683028 223.343146,382.333182 225,382.333182 C226.653483,382.333182 228,383.677976 228,385.336863 L228,421.329501 C228,422.983336 226.656854,424.333182 225,424.333182 Z M185.993207,420.300358 C184.375857,419.956579 183.338362,418.361216 183.683264,416.738579 L191.166555,381.532467 C191.510406,379.914772 193.10485,378.873679 194.725498,379.218159 C196.342848,379.561937 197.380342,381.157301 197.03544,382.779937 L189.55215,417.986049 C189.208298,419.603744 187.613855,420.644837 185.993207,420.300358 Z M147.991649,409.114326 C146.481118,408.441794 145.79799,406.665585 146.47272,405.150116 L161.112245,372.269206 C161.78492,370.758352 163.560977,370.071513 165.074588,370.745416 C166.58512,371.417948 167.268248,373.194157 166.593518,374.709626 L151.953993,407.590536 C151.281318,409.10139 149.505261,409.788229 147.991649,409.114326 Z M114.585865,390.022571 C113.215065,389.097955 112.850751,387.230108 113.778389,385.854828 L133.905217,356.015579 C134.83003,354.644488 136.698372,354.276492 138.071967,355.202993 C139.442766,356.127609 139.80708,357.995456 138.879442,359.370736 L118.752615,389.209985 C117.827802,390.581076 115.959459,390.949072 114.585865,390.022571 Z M83.4574545,366.964563 C82.3088487,365.775146 82.3408431,363.872371 83.5341468,362.720011 L109.425084,337.717424 C110.614753,336.568574 112.518778,336.59707 113.669726,337.788911 C114.818332,338.978327 114.786337,340.881103 113.593034,342.033463 L87.702097,367.03605 C86.5124277,368.1849 84.6084021,368.156404 83.4574545,366.964563 Z M58.984338,335.82073 C58.0837867,334.434003 58.4782599,332.572291 59.8695199,331.668796 L90.0554857,312.065801 C91.4425084,311.165058 93.3061143,311.556336 94.2085018,312.94589 C95.1090532,314.332618 94.7145799,316.194329 93.3233199,317.097824 L63.1373541,336.70082 C61.7503314,337.601563 59.8867255,337.210285 58.984338,335.82073 Z M41.3726042,301.11536 C40.726537,299.593321 41.4383002,297.828393 42.965314,297.180214 L76.0967115,283.11677 C77.6190746,282.470565 79.3864235,283.17951 80.0338081,284.704653 C80.6798753,286.226692 79.9681122,287.99162 78.4410983,288.639799 L45.3097008,302.703243 C43.7873377,303.349448 42.0199888,302.640502 41.3726042,301.11536 Z M29.9393318,263.230085 C29.6238324,261.606981 30.6869911,260.028604 32.3154,259.712074 L67.6467514,252.844355 C69.2702007,252.528788 70.8515308,253.589694 71.1676735,255.216107 C71.4831729,256.83921 70.4200143,258.417587 68.7916054,258.734118 L33.460254,265.601837 C31.8368046,265.917403 30.2554745,264.856498 29.9393318,263.230085 Z M25.8094242,224.790071 C25.8094242,223.136588 27.1542181,221.790071 28.8131055,221.790071 L64.805743,221.790071 C66.4595779,221.790071 67.8094242,223.133217 67.8094242,224.790071 C67.8094242,226.443554 66.4646303,227.790071 64.805743,227.790071 L28.8131055,227.790071 C27.1592705,227.790071 25.8094242,226.446925 25.8094242,224.790071 Z M30.1952533,186.536122 C30.5107527,184.913019 32.0877666,183.84784 33.7161755,184.16437 L69.0475269,191.032089 C70.6709762,191.347656 71.7397377,192.923687 71.423595,194.5501 C71.1080956,196.173204 69.5310818,197.238383 67.9026729,196.921852 L32.5713215,190.054133 C30.9478721,189.738567 29.8791106,188.162536 30.1952533,186.536122 Z M41.0826416,149.243348 C41.7020472,147.710266 43.4533326,146.965565 44.9914261,147.586996 L78.3632185,161.070075 C79.8966276,161.689612 80.645032,163.440617 80.0243635,164.976825 C79.4049579,166.509908 77.6536725,167.254608 76.115579,166.633178 L42.7437866,153.150099 C41.2103775,152.530561 40.4619731,150.779557 41.0826416,149.243348 Z M59.091124,114.645876 C59.9916754,113.259149 61.8528802,112.862292 63.2441402,113.765786 L93.4301059,133.368782 C94.8171287,134.269525 95.2176754,136.131161 94.3152879,137.520715 C93.4147366,138.907443 91.5535317,139.3043 90.1622717,138.400805 L59.976306,118.79781 C58.5892833,117.897067 58.1887365,116.035431 59.091124,114.645876 Z M84.0234827,84.1471949 C85.1926717,82.9780059 87.0957159,82.9767874 88.2687264,84.1497979 L113.719365,109.600436 C114.888802,110.769874 114.89354,112.674107 113.721968,113.84568 C112.552779,115.014869 110.649734,115.016087 109.476724,113.843077 L84.0260857,88.3924386 C82.8566478,87.2230007 82.8519098,85.3187678 84.0234827,84.1471949 Z M114.533254,59.6170022 C115.904054,58.6923863 117.772366,59.0543081 118.700004,60.4295881 L138.826832,90.2688369 C139.751644,91.6399282 139.392951,93.5100791 138.019356,94.4365802 C136.648557,95.3611961 134.780244,94.9992743 133.852606,93.6239943 L113.725779,63.7847455 C112.800966,62.4136542 113.15966,60.5435033 114.533254,59.6170022 Z M148.894003,41.3000265 C150.416042,40.6539593 152.18097,41.3657225 152.829149,42.8927363 L166.892593,76.0241339 C167.538798,77.546497 166.829853,79.3138459 165.30471,79.9612304 C163.782671,80.6072976 162.017743,79.8955345 161.369564,78.3685206 L147.30612,45.2371231 C146.659915,43.71476 147.368861,41.9474111 148.894003,41.3000265 Z M186.354231,29.5334253 C187.977334,29.2179259 189.555711,30.2810845 189.872242,31.9094934 L196.739961,67.2408448 C197.055527,68.8642942 195.994622,70.4456243 194.368208,70.761767 C192.745105,71.0772664 191.166728,70.0141077 190.850197,68.3856988 L183.982478,33.0543474 C183.666912,31.4308981 184.727817,29.849568 186.354231,29.5334253 Z" id="Rectangle-1" fill="url(#linearGradient-7)"></path>
            <path d="M227.995151,25.626363 C229.647627,25.6840687 230.946427,27.0740096 230.888577,28.73062 L230.330281,44.7181011 C230.272407,46.3753965 228.883207,47.6707845 227.227362,47.6129612 C225.574886,47.5552554 224.276086,46.1653145 224.333937,44.5087041 L224.892232,28.521223 C224.950106,26.8639276 226.339306,25.5685396 227.995151,25.626363 Z M266.614968,29.5359407 C268.238072,29.8514402 269.303447,31.4274457 268.987158,33.0546107 L265.934743,48.7579228 C265.618324,50.3857607 264.043583,51.4478815 262.41717,51.1317388 C260.794066,50.8162394 259.728691,49.2402339 260.04498,47.6130688 L263.097395,31.9097568 C263.413814,30.2819188 264.988555,29.2197981 266.614968,29.5359407 Z M303.029017,41.8052294 C304.551056,42.4512966 305.26548,44.2143666 304.617796,45.740214 L298.367182,60.4657383 C297.719231,61.9922167 295.958075,62.7037207 294.432932,62.0563362 C292.910893,61.4102689 292.196469,59.647199 292.844153,58.1213515 L299.094767,43.3958273 C299.742719,41.8693488 301.503875,41.1578449 303.029017,41.8052294 Z M337.757993,60.0526518 C339.112447,61.0010506 339.444696,62.8741303 338.493924,64.2319733 L329.318292,77.3361338 C328.367127,78.6945383 326.496527,79.0243293 325.139311,78.0739967 C323.784857,77.1255979 323.452608,75.2525182 324.40338,73.8946752 L333.579012,60.7905147 C334.530177,59.4321102 336.400777,59.1023192 337.757993,60.0526518 Z M368.016217,84.705623 C369.185406,85.874812 369.187351,87.7771299 368.015236,88.9492444 L356.703489,100.260992 C355.53089,101.433591 353.63144,101.433545 352.459868,100.261972 C351.290679,99.0927833 351.288734,97.1904653 352.460848,96.0183508 L363.772595,84.7066038 C364.945195,83.5340046 366.844644,83.5340502 368.016217,84.705623 Z M380.70929,100.031239 C381.681183,101.368935 381.385516,103.248136 380.044473,104.222461 L367.102445,113.625395 C365.760848,114.600122 363.884791,114.302938 362.910917,112.962515 C361.939024,111.624819 362.234691,109.745617 363.575734,108.771293 L376.517762,99.3683591 C377.859359,98.3936315 379.735416,98.6908159 380.70929,100.031239 Z M392.690535,115.74033 C393.591086,117.127058 393.197474,118.98821 391.807277,119.891014 L378.390874,128.603728 C377.000102,129.506906 375.14217,129.111944 374.239782,127.722389 C373.339231,126.335662 373.732843,124.474509 375.12304,123.571705 L388.539443,114.858991 C389.930215,113.955813 391.788147,114.350775 392.690535,115.74033 Z M410.873655,149.779565 C411.49306,151.312648 410.751556,153.064501 409.214637,153.685456 L394.382267,159.678122 C392.844713,160.299335 391.096278,159.557119 390.47561,158.02091 C389.856204,156.487828 390.597709,154.735975 392.134628,154.115019 L406.966997,148.122353 C408.504552,147.501141 410.252986,148.243357 410.873655,149.779565 Z M421.913033,187.063159 C422.256811,188.680509 421.222366,190.276986 419.600968,190.621625 L403.95332,193.947635 C402.331252,194.292416 400.738265,193.257864 400.393785,191.637216 C400.050007,190.019866 401.084453,188.423388 402.70585,188.07875 L418.353498,184.752739 C419.975566,184.407958 421.568553,185.442511 421.913033,187.063159 Z M425.740374,225.831385 C425.740374,227.484868 424.396608,228.831385 422.738987,228.831385 L406.741761,228.831385 C405.083456,228.831385 403.740374,227.48824 403.740374,225.831385 C403.740374,224.177902 405.084141,222.831385 406.741761,222.831385 L422.738987,222.831385 C424.397293,222.831385 425.740374,224.174531 425.740374,225.831385 Z M421.509825,265.403784 C421.166046,267.021134 419.571687,268.058842 417.95029,267.714204 L402.302642,264.388193 C400.680574,264.043412 399.646098,262.450375 399.990577,260.829727 C400.334356,259.212377 401.928715,258.174669 403.550112,258.519308 L419.19776,261.845318 C420.819828,262.190099 421.854304,263.783136 421.509825,265.403784 Z M409.972556,301.513487 C409.407031,303.067253 407.683767,303.87297 406.126114,303.30603 L391.093639,297.834657 C389.535341,297.267483 388.73264,295.545978 389.299318,293.989044 C389.864842,292.435278 391.588106,291.629561 393.145759,292.196501 L408.178235,297.667875 C409.736532,298.235049 410.539233,299.956553 409.972556,301.513487 Z M390.221507,336.825997 C389.273108,338.180451 387.400029,338.512701 386.042186,337.561929 L372.938025,328.386297 C371.579621,327.435132 371.24983,325.564531 372.200162,324.207316 C373.148561,322.852862 375.021641,322.520613 376.379484,323.471385 L389.483644,332.647017 C390.842049,333.598182 391.17184,335.468782 390.221507,336.825997 Z M366.154064,366.44293 C365.005459,367.632346 363.103464,367.66749 361.911072,366.51601 L350.403631,355.403403 C349.210746,354.251447 349.177641,352.352287 350.328589,351.160445 C351.477195,349.971029 353.379189,349.935885 354.571581,351.087365 L366.079022,362.199972 C367.271908,363.351928 367.305012,365.251088 366.154064,366.44293 Z M335.732894,391.101481 C334.362094,392.026097 332.494356,391.665027 331.567427,390.290797 L322.621891,377.028496 C321.694579,375.653698 322.057055,373.789156 323.43065,372.862654 C324.801449,371.938039 326.669187,372.299109 327.596117,373.673338 L336.541652,386.93564 C337.468965,388.310437 337.106488,390.17498 335.732894,391.101481 Z M301.199299,409.461223 C299.688767,410.133756 297.912104,409.453841 297.237889,407.93953 L290.731231,393.325337 C290.056737,391.810399 290.737481,390.037127 292.251093,389.363223 C293.761625,388.690691 295.538288,389.370605 296.212503,390.884917 L302.719161,405.49911 C303.393655,407.014048 302.712911,408.78732 301.199299,409.461223 Z M264.331075,421.038127 C262.713725,421.381906 261.117248,420.34746 260.772609,418.726063 L257.446599,403.078414 C257.101818,401.456347 258.13637,399.863359 259.757018,399.51888 C261.374368,399.175101 262.970846,400.209547 263.315484,401.830944 L266.641495,417.478593 C266.986276,419.10066 265.951723,420.693648 264.331075,421.038127 Z M225.054121,424.039782 C223.400638,424.039782 222.054121,422.696015 222.054121,421.038395 L222.054121,405.041169 C222.054121,403.382863 223.397266,402.039782 225.054121,402.039782 C226.707603,402.039782 228.054121,403.383549 228.054121,405.041169 L228.054121,421.038395 C228.054121,422.696701 226.710975,424.039782 225.054121,424.039782 Z M185.999738,420.04905 C184.388633,419.677098 183.378909,418.064871 183.751792,416.449735 L187.350385,400.862517 C187.723423,399.246714 189.334272,398.240198 190.948661,398.612909 C192.559765,398.984862 193.569489,400.597088 193.196606,402.212224 L189.598013,417.799442 C189.224975,419.415245 187.614127,420.421761 185.999738,420.04905 Z M149.075011,408.371014 C147.541928,407.751608 146.796843,406.001275 147.417799,404.464356 L153.410465,389.631987 C154.031677,388.094432 155.780148,387.3523 157.316356,387.972969 C158.849439,388.592375 159.594524,390.342708 158.973568,391.879626 L152.980902,406.711996 C152.35969,408.24955 150.61122,408.991682 149.075011,408.371014 Z M114.456457,389.416542 C113.069729,388.515991 112.672313,386.655647 113.575118,385.26545 L122.287831,371.849047 C123.191009,370.458275 125.048961,370.063402 126.438516,370.96579 C127.825243,371.866341 128.222659,373.726684 127.319855,375.116882 L118.607141,388.533284 C117.703963,389.924056 115.846012,390.31893 114.456457,389.416542 Z M84.2872737,365.471549 C83.1180848,364.30236 83.11614,362.400042 84.2882545,361.227928 L95.6000015,349.916181 C96.7726007,348.743581 98.6720501,348.743627 99.8436229,349.9152 C101.012812,351.084389 101.014757,352.986707 99.8426422,354.158821 L88.5308951,365.470568 C87.358296,366.643167 85.4588466,366.643122 84.2872737,365.471549 Z M59.6923357,333.928455 C58.8161233,332.526222 59.2421567,330.672223 60.6478984,329.793818 L74.2143155,321.31658 C75.6206385,320.437811 77.4713948,320.865139 78.3493938,322.270231 C79.2256062,323.672464 78.7995728,325.526463 77.3938311,326.404868 L63.827414,334.882106 C62.421091,335.760874 60.5703347,335.333547 59.6923357,333.928455 Z M41.8224722,300.249926 C41.2030667,298.716844 41.9445713,296.964991 43.48149,296.344036 L58.3138598,290.351369 C59.851414,289.730157 61.5998485,290.472373 62.220517,292.008581 C62.8399226,293.541664 62.098418,295.293517 60.5614993,295.914472 L45.7291295,301.907139 C44.1915753,302.528351 42.4431408,301.786135 41.8224722,300.249926 Z M30.5819091,262.361389 C30.2664097,260.738285 31.32856,259.160105 32.9557251,258.843816 L48.6590371,255.791401 C50.2868751,255.474982 51.8615644,256.537178 52.1777071,258.163591 C52.4932065,259.786695 51.4310562,261.364875 49.8038911,261.681164 L34.1005791,264.733579 C32.4727412,265.049999 30.8980518,263.987802 30.5819091,262.361389 Z M27.6825726,223.289242 C27.6825726,221.63576 29.0263393,220.289242 30.6839595,220.289242 L46.6811856,220.289242 C48.3394913,220.289242 49.6825726,221.632388 49.6825726,223.289242 C49.6825726,224.942725 48.3388059,226.289242 46.6811856,226.289242 L30.6839595,226.289242 C29.0256539,226.289242 27.6825726,224.946097 27.6825726,223.289242 Z M30.5827531,185.032844 C30.8414148,183.399719 32.3792792,182.279991 34.0164914,182.5393 L49.8167651,185.041817 C51.4546543,185.301233 52.5710857,186.837947 52.3118966,188.474403 C52.0532349,190.107528 50.5153705,191.227256 48.8781583,190.967947 L33.0778846,188.46543 C31.4399954,188.206014 30.323564,186.6693 30.5827531,185.032844 Z M42.4761792,147.50927 C43.1222464,145.987231 44.8853164,145.272807 46.4111638,145.920491 L61.1366881,152.171105 C62.6631665,152.819057 63.3746705,154.580213 62.727286,156.105355 C62.0812187,157.627394 60.3181488,158.341818 58.7923014,157.694134 L44.0667771,151.44352 C42.5402986,150.795568 41.8287947,149.034412 42.4761792,147.50927 Z M61.7445517,114.048721 C62.6691676,112.677922 64.5361635,112.313033 65.910393,113.239963 L79.1726945,122.185498 C80.5474922,123.112811 80.9098794,124.977371 79.9833783,126.350965 C79.0587624,127.721765 77.1917665,128.086653 75.817537,127.159724 L62.5552355,118.214188 C61.1804378,117.286876 60.8180506,115.422316 61.7445517,114.048721 Z M86.5408812,83.8631357 C87.7100701,82.6939467 89.612388,82.6920019 90.7845026,83.8641164 L102.09625,95.1758634 C103.268849,96.3484626 103.268803,98.247912 102.09723,99.4194848 C100.928041,100.588674 99.0257234,100.590619 97.8536089,99.4185041 L86.5418619,88.1067571 C85.3692627,86.9341579 85.3693083,85.0347085 86.5408812,83.8631357 Z M116.508852,59.5986325 C117.863306,58.6502337 119.737061,58.9786524 120.687833,60.3364954 L129.863465,73.4406559 C130.81463,74.7990604 130.484749,76.6696449 129.127534,77.6199775 C127.77308,78.5683763 125.899325,78.2399575 124.948553,76.8821145 L115.772921,63.7779541 C114.821756,62.4195496 115.151637,60.5489651 116.508852,59.5986325 Z M150.865143,41.116189 C152.387182,40.4701218 154.151709,41.1809394 154.799393,42.7067869 L161.050007,57.4323112 C161.697959,58.9587896 160.986371,60.7199113 159.461228,61.3672958 C157.939189,62.0133631 156.174662,61.3025454 155.526978,59.776698 L149.276364,45.0511737 C148.628412,43.5246953 149.340001,41.7635736 150.865143,41.116189 Z M188.551828,29.7203672 C190.169179,29.3765888 191.765656,30.4110343 192.110295,32.0324316 L195.436305,47.6800799 C195.781086,49.3021477 194.746533,50.8951351 193.125885,51.2396144 C191.508535,51.5833929 189.912058,50.5489473 189.567419,48.9275501 L186.241409,33.2799017 C185.896628,31.657834 186.93118,30.0648466 188.551828,29.7203672 Z" id="Rectangle-33" fill="url(#linearGradient-8)" transform="translate(226.689031, 224.933247) rotate(-6.000000) translate(-226.689031, -224.933247) "></path>
            <g id="Triangle-1" transform="translate(171.891252, 302.759454) rotate(-138.000000) translate(-171.891252, -302.759454) ">
                <use fill="black" fill-opacity="1" filter="url(#filter-10)" xlink:href="#path-9"></use>
                <use fill="#ACACAC" fill-rule="evenodd" xlink:href="#path-9"></use>
            </g>
            <polygon id="Triangle-3" fill="#EDEDED" transform="translate(147.422914, 278.634947) scale(-1, 1) rotate(-227.000000) translate(-147.422914, -278.634947) " points="168.761364 180.278265 160.227404 376.657629 126.176489 369.693442"></polygon>
            <polygon id="Triangle-2" fill="#FE4F4F" transform="translate(275.641324, 136.253959) rotate(-323.000000) translate(-275.641324, -136.253959) " points="297.979773 39.3972771 288.508637 233.382552 253.806219 233.745223"></polygon>
            <g id="Triangle-4" transform="translate(301.978771, 158.603409) scale(-1, 1) rotate(-43.000000) translate(-301.978771, -158.603409) ">
                <use fill="black" fill-opacity="1" filter="url(#filter-12)" xlink:href="#path-11"></use>
                <use fill="#CF1D13" fill-rule="evenodd" xlink:href="#path-11"></use>
            </g>
        </g>
    </g>
</svg>